<svg id="splitsvg" version="1.1" xmlns="http://www.w3.org/2000/svg" xmlns:xlink="http://www.w3.org/1999/xlink" width="1380" height="816"><g id="svgg"><path id="path0" d="M0.000 189.573 L 0.000 379.147 200.000 379.147 L 400.000 379.147 400.000 189.573 L 400.000 0.000 200.000 0.000 L 0.000 0.000 0.000 189.573 M348.518 28.810 C 354.581 30.682,359.505 35.870,361.002 41.962 C 361.741 44.970,361.793 336.270,361.056 340.072 C 359.770 346.700,355.157 351.877,348.701 353.937 L 345.743 354.882 198.289 354.882 L 50.835 354.882 48.036 353.993 C 43.095 352.424,39.210 349.068,36.884 344.362 L 35.450 341.461 35.450 191.489 L 35.450 41.517 36.694 38.890 C 39.039 33.939,42.691 30.649,47.764 28.920 L 50.237 28.076 198.159 28.067 C 344.658 28.057,346.105 28.064,348.518 28.810 M254.028 130.656 C 253.507 130.750,251.374 131.097,249.289 131.428 C 231.737 134.209,217.670 146.278,211.586 163.776 C 210.773 166.115,210.020 168.116,209.913 168.223 C 208.870 169.266,201.926 149.844,198.466 136.209 L 197.769 133.460 177.936 133.460 L 158.104 133.460 158.101 159.526 C 158.097 191.751,157.817 194.544,153.816 202.275 C 146.236 216.918,124.768 218.629,115.006 205.368 C 108.785 196.917,108.445 194.605,108.440 160.664 L 108.436 133.460 97.040 133.460 L 85.643 133.460 85.780 161.611 L 85.918 189.763 86.900 194.502 C 92.698 222.484,114.525 237.984,142.180 233.758 C 161.971 230.734,176.890 214.462,179.909 192.607 C 180.327 189.583,180.462 184.113,180.472 169.858 C 180.486 150.269,180.617 148.540,181.786 152.511 C 183.557 158.524,185.688 164.600,188.804 172.512 C 191.368 179.023,197.971 191.298,202.492 197.955 L 204.026 200.214 203.445 203.140 C 203.125 204.750,202.608 207.602,202.296 209.479 C 201.984 211.355,201.307 215.280,200.792 218.199 C 200.277 221.118,199.428 225.981,198.907 229.005 C 198.386 232.028,197.430 237.488,196.783 241.137 C 193.819 257.850,191.859 269.270,191.853 269.863 C 191.849 270.242,194.263 270.322,203.284 270.243 L 214.719 270.142 215.985 262.370 C 216.681 258.095,217.589 252.635,218.001 250.237 C 218.414 247.839,219.280 242.550,219.926 238.483 C 220.572 234.417,221.429 229.283,221.830 227.074 C 222.231 224.865,222.559 222.615,222.559 222.073 C 222.559 220.543,223.183 220.503,224.931 221.924 C 241.304 235.226,264.083 238.186,282.275 229.375 C 323.119 209.592,319.428 147.999,276.518 133.299 C 270.401 131.203,258.649 129.822,254.028 130.656 M265.647 151.510 C 295.688 157.652,295.675 207.423,265.632 213.629 C 252.641 216.312,237.360 209.713,228.495 197.591 C 226.484 194.841,226.512 195.653,228.125 186.919 C 233.110 159.929,246.238 147.541,265.647 151.510  M -25 0 L -5 0 L -5 20 L -25 20 Z M 405 0 L 425 0 L 425 20 L 405 20 Z" stroke="none" fill="#f8f8f8" fill-rule="evenodd" transform="translate(30,0)"></path><path id="path1" d="M49.148 28.856 C 42.584 30.402,37.166 36.298,35.825 43.351 C 34.968 47.862,34.970 335.098,35.827 339.578 C 37.001 345.713,40.876 350.605,46.473 353.017 L 49.479 354.313 198.294 354.313 L 347.109 354.313 349.956 353.083 C 354.774 351.002,358.072 347.555,360.110 342.468 L 361.137 339.905 361.137 191.659 L 361.137 43.412 360.266 40.890 C 358.567 35.976,355.277 32.345,350.419 30.025 L 347.488 28.626 199.052 28.568 C 110.679 28.533,50.022 28.650,49.148 28.856 M268.815 130.841 C 297.051 135.229,316.235 164.319,310.220 193.624 C 302.352 231.953,258.147 247.528,226.092 223.265 C 222.994 220.920,223.129 220.761,221.996 228.079 C 220.822 235.668,219.293 245.080,217.382 256.493 C 217.068 258.370,216.481 262.123,216.079 264.834 C 215.677 267.545,215.270 269.976,215.174 270.237 C 215.040 270.602,212.301 270.711,203.235 270.711 L 191.469 270.711 191.471 269.858 C 191.472 268.941,191.918 266.236,193.735 256.114 C 194.372 252.569,195.232 247.536,195.647 244.929 C 196.062 242.322,196.489 239.954,196.596 239.667 C 196.703 239.379,197.130 236.991,197.545 234.359 C 197.960 231.727,198.474 228.806,198.686 227.867 C 198.899 226.929,199.414 224.114,199.831 221.611 C 200.928 215.029,202.329 206.923,202.992 203.316 L 203.567 200.187 201.949 197.818 C 194.030 186.229,184.312 164.923,181.499 152.986 C 181.401 152.569,181.295 159.223,181.265 167.773 C 181.203 185.239,180.875 191.275,179.704 196.442 C 174.658 218.710,159.290 232.866,138.179 234.692 C 114.487 236.741,95.005 223.559,88.026 200.758 C 85.852 193.654,85.877 194.104,85.877 162.275 L 85.877 132.891 96.493 132.785 C 102.332 132.726,107.485 132.770,107.944 132.882 L 108.780 133.086 108.909 161.804 L 109.038 190.521 110.037 193.934 C 113.924 207.216,121.838 213.839,133.822 213.839 C 144.301 213.839,151.688 208.255,155.439 197.499 C 157.527 191.513,157.725 188.200,157.725 159.263 C 157.725 135.812,157.786 133.138,158.325 132.932 C 159.188 132.600,197.264 132.658,197.764 132.992 C 197.995 133.145,198.450 134.379,198.776 135.735 C 201.077 145.291,205.363 158.463,207.746 163.299 C 208.178 164.175,208.532 165.028,208.533 165.195 C 208.535 165.361,208.850 165.974,209.234 166.556 L 209.932 167.615 210.793 164.850 C 212.198 160.344,214.706 155.034,216.879 151.967 C 217.516 151.068,218.443 149.718,218.939 148.968 C 227.804 135.568,249.198 127.793,268.815 130.841 M254.408 151.521 C 241.699 153.923,233.528 164.297,229.212 183.507 C 226.680 194.781,226.778 195.450,231.762 200.776 C 254.254 224.817,287.757 213.917,287.757 182.559 C 287.757 167.865,280.504 156.813,268.057 152.540 C 265.256 151.579,257.259 150.982,254.408 151.521  M -25 0 L -5 0 L -5 20 L -25 20 Z M 405 0 L 425 0 L 425 20 L 405 20 Z" stroke="none" fill="#040404" fill-rule="evenodd" transform="translate(490,0)"></path><path id="path2" d="M52.598 28.331 C 53.271 28.414,54.466 28.416,55.252 28.334 C 56.039 28.251,55.488 28.183,54.028 28.181 C 52.569 28.180,51.925 28.247,52.598 28.331 M62.471 28.332 C 63.153 28.416,64.176 28.414,64.746 28.328 C 65.316 28.241,64.758 28.172,63.507 28.174 C 62.256 28.176,61.790 28.247,62.471 28.332 M71.950 28.332 C 72.631 28.416,73.655 28.414,74.225 28.328 C 74.795 28.241,74.237 28.172,72.986 28.174 C 71.735 28.176,71.268 28.247,71.950 28.332 M81.043 28.331 C 81.720 28.415,82.829 28.415,83.507 28.331 C 84.185 28.247,83.630 28.178,82.275 28.178 C 80.919 28.178,80.365 28.247,81.043 28.331 M90.521 28.331 C 91.199 28.415,92.308 28.415,92.986 28.331 C 93.664 28.247,93.109 28.178,91.754 28.178 C 90.398 28.178,89.844 28.247,90.521 28.331 M100.000 28.331 C 100.678 28.415,101.787 28.415,102.464 28.331 C 103.142 28.247,102.588 28.178,101.232 28.178 C 99.877 28.178,99.322 28.247,100.000 28.331 M109.479 28.331 C 110.156 28.415,111.265 28.415,111.943 28.331 C 112.621 28.247,112.066 28.178,110.711 28.178 C 109.355 28.178,108.801 28.247,109.479 28.331 M118.964 28.332 C 119.646 28.416,120.669 28.414,121.239 28.328 C 121.809 28.241,121.251 28.172,120.000 28.174 C 118.749 28.176,118.283 28.247,118.964 28.332 M128.057 28.331 C 128.735 28.415,129.844 28.415,130.521 28.331 C 131.199 28.247,130.645 28.178,129.289 28.178 C 127.934 28.178,127.379 28.247,128.057 28.331 M137.536 28.331 C 138.213 28.415,139.322 28.415,140.000 28.331 C 140.678 28.247,140.123 28.178,138.768 28.178 C 137.412 28.178,136.858 28.247,137.536 28.331 M147.014 28.331 C 147.692 28.415,148.801 28.415,149.479 28.331 C 150.156 28.247,149.602 28.178,148.246 28.178 C 146.891 28.178,146.336 28.247,147.014 28.331 M156.493 28.331 C 157.171 28.415,158.280 28.415,158.957 28.331 C 159.635 28.247,159.081 28.178,157.725 28.178 C 156.370 28.178,155.815 28.247,156.493 28.331 M165.978 28.332 C 166.660 28.416,167.684 28.414,168.253 28.328 C 168.823 28.241,168.265 28.172,167.014 28.174 C 165.763 28.176,165.297 28.247,165.978 28.332 M175.457 28.332 C 176.138 28.416,177.162 28.414,177.732 28.328 C 178.302 28.241,177.744 28.172,176.493 28.174 C 175.242 28.176,174.776 28.247,175.457 28.332 M184.550 28.331 C 185.227 28.415,186.336 28.415,187.014 28.331 C 187.692 28.247,187.137 28.178,185.782 28.178 C 184.427 28.178,183.872 28.247,184.550 28.331 M194.028 28.331 C 194.706 28.415,195.815 28.415,196.493 28.331 C 197.171 28.247,196.616 28.178,195.261 28.178 C 193.905 28.178,193.351 28.247,194.028 28.331 M203.507 28.331 C 204.185 28.415,205.294 28.415,205.972 28.331 C 206.649 28.247,206.095 28.178,204.739 28.178 C 203.384 28.178,202.829 28.247,203.507 28.331 M212.986 28.331 C 213.664 28.415,214.773 28.415,215.450 28.331 C 216.128 28.247,215.573 28.178,214.218 28.178 C 212.863 28.178,212.308 28.247,212.986 28.331 M222.471 28.332 C 223.153 28.416,224.176 28.414,224.746 28.328 C 225.316 28.241,224.758 28.172,223.507 28.174 C 222.256 28.176,221.790 28.247,222.471 28.332 M231.950 28.332 C 232.631 28.416,233.655 28.414,234.225 28.328 C 234.795 28.241,234.237 28.172,232.986 28.174 C 231.735 28.176,231.268 28.247,231.950 28.332 M241.043 28.331 C 241.720 28.415,242.829 28.415,243.507 28.331 C 244.185 28.247,243.630 28.178,242.275 28.178 C 240.919 28.178,240.365 28.247,241.043 28.331 M250.521 28.331 C 251.199 28.415,252.308 28.415,252.986 28.331 C 253.664 28.247,253.109 28.178,251.754 28.178 C 250.398 28.178,249.844 28.247,250.521 28.331 M260.000 28.331 C 260.678 28.415,261.787 28.415,262.464 28.331 C 263.142 28.247,262.588 28.178,261.232 28.178 C 259.877 28.178,259.322 28.247,260.000 28.331 M269.479 28.331 C 270.156 28.415,271.265 28.415,271.943 28.331 C 272.621 28.247,272.066 28.178,270.711 28.178 C 269.355 28.178,268.801 28.247,269.479 28.331 M278.964 28.332 C 279.646 28.416,280.669 28.414,281.239 28.328 C 281.809 28.241,281.251 28.172,280.000 28.174 C 278.749 28.176,278.283 28.247,278.964 28.332 M288.057 28.331 C 288.735 28.415,289.844 28.415,290.521 28.331 C 291.199 28.247,290.645 28.178,289.289 28.178 C 287.934 28.178,287.379 28.247,288.057 28.331 M297.536 28.331 C 298.213 28.415,299.322 28.415,300.000 28.331 C 300.678 28.247,300.123 28.178,298.768 28.178 C 297.412 28.178,296.858 28.247,297.536 28.331 M307.014 28.331 C 307.692 28.415,308.801 28.415,309.479 28.331 C 310.156 28.247,309.602 28.178,308.246 28.178 C 306.891 28.178,306.336 28.247,307.014 28.331 M316.493 28.331 C 317.171 28.415,318.280 28.415,318.957 28.331 C 319.635 28.247,319.081 28.178,317.725 28.178 C 316.370 28.178,315.815 28.247,316.493 28.331 M325.978 28.332 C 326.660 28.416,327.684 28.414,328.253 28.328 C 328.823 28.241,328.265 28.172,327.014 28.174 C 325.763 28.176,325.297 28.247,325.978 28.332 M335.457 28.332 C 336.138 28.416,337.162 28.414,337.732 28.328 C 338.302 28.241,337.744 28.172,336.493 28.174 C 335.242 28.176,334.776 28.247,335.457 28.332 M157.904 159.242 C 157.904 173.526,157.952 179.370,158.009 172.227 C 158.067 165.085,158.067 153.398,158.009 146.256 C 157.952 139.114,157.904 144.957,157.904 159.242 M296.114 145.403 C 296.821 146.133,297.485 146.730,297.590 146.730 C 297.694 146.730,297.200 146.133,296.493 145.403 C 295.785 144.673,295.121 144.076,295.017 144.076 C 294.913 144.076,295.406 144.673,296.114 145.403 M108.602 169.858 C 108.602 175.384,108.655 177.645,108.719 174.882 C 108.784 172.118,108.784 167.597,108.719 164.834 C 108.655 162.071,108.602 164.332,108.602 169.858 M311.022 182.749 C 311.022 184.104,311.091 184.659,311.175 183.981 C 311.259 183.303,311.259 182.194,311.175 181.517 C 311.091 180.839,311.022 181.393,311.022 182.749 M296.093 219.810 L 294.787 221.232 296.209 219.926 C 297.532 218.709,297.805 218.389,297.515 218.389 C 297.452 218.389,296.812 219.028,296.093 219.810 M57.536 354.777 C 58.213 354.861,59.322 354.861,60.000 354.777 C 60.678 354.693,60.123 354.624,58.768 354.624 C 57.412 354.624,56.858 354.693,57.536 354.777 M67.014 354.777 C 67.692 354.861,68.801 354.861,69.479 354.777 C 70.156 354.693,69.602 354.624,68.246 354.624 C 66.891 354.624,66.336 354.693,67.014 354.777 M76.493 354.777 C 77.171 354.861,78.280 354.861,78.957 354.777 C 79.635 354.693,79.081 354.624,77.725 354.624 C 76.370 354.624,75.815 354.693,76.493 354.777 M85.978 354.777 C 86.660 354.862,87.684 354.860,88.253 354.773 C 88.823 354.687,88.265 354.618,87.014 354.620 C 85.763 354.622,85.297 354.693,85.978 354.777 M95.457 354.777 C 96.138 354.862,97.162 354.860,97.732 354.773 C 98.302 354.687,97.744 354.618,96.493 354.620 C 95.242 354.622,94.776 354.693,95.457 354.777 M104.936 354.777 C 105.617 354.862,106.641 354.860,107.211 354.773 C 107.780 354.687,107.223 354.618,105.972 354.620 C 104.720 354.622,104.254 354.693,104.936 354.777 M114.028 354.777 C 114.706 354.861,115.815 354.861,116.493 354.777 C 117.171 354.693,116.616 354.624,115.261 354.624 C 113.905 354.624,113.351 354.693,114.028 354.777 M123.507 354.777 C 124.185 354.861,125.294 354.861,125.972 354.777 C 126.649 354.693,126.095 354.624,124.739 354.624 C 123.384 354.624,122.829 354.693,123.507 354.777 M132.993 354.777 C 133.674 354.862,134.698 354.860,135.267 354.773 C 135.837 354.687,135.280 354.618,134.028 354.620 C 132.777 354.622,132.311 354.693,132.993 354.777 M142.471 354.777 C 143.153 354.862,144.176 354.860,144.746 354.773 C 145.316 354.687,144.758 354.618,143.507 354.620 C 142.256 354.622,141.790 354.693,142.471 354.777 M151.950 354.777 C 152.631 354.862,153.655 354.860,154.225 354.773 C 154.795 354.687,154.237 354.618,152.986 354.620 C 151.735 354.622,151.268 354.693,151.950 354.777 M161.043 354.777 C 161.720 354.861,162.829 354.861,163.507 354.777 C 164.185 354.693,163.630 354.624,162.275 354.624 C 160.919 354.624,160.365 354.693,161.043 354.777 M170.521 354.777 C 171.199 354.861,172.308 354.861,172.986 354.777 C 173.664 354.693,173.109 354.624,171.754 354.624 C 170.398 354.624,169.844 354.693,170.521 354.777 M180.000 354.777 C 180.678 354.861,181.787 354.861,182.464 354.777 C 183.142 354.693,182.588 354.624,181.232 354.624 C 179.877 354.624,179.322 354.693,180.000 354.777 M189.485 354.777 C 190.167 354.862,191.191 354.860,191.760 354.773 C 192.330 354.687,191.773 354.618,190.521 354.620 C 189.270 354.622,188.804 354.693,189.485 354.777 M198.964 354.777 C 199.646 354.862,200.669 354.860,201.239 354.773 C 201.809 354.687,201.251 354.618,200.000 354.620 C 198.749 354.622,198.283 354.693,198.964 354.777 M208.443 354.777 C 209.124 354.862,210.148 354.860,210.718 354.773 C 211.287 354.687,210.730 354.618,209.479 354.620 C 208.227 354.622,207.761 354.693,208.443 354.777 M217.536 354.777 C 218.213 354.861,219.322 354.861,220.000 354.777 C 220.678 354.693,220.123 354.624,218.768 354.624 C 217.412 354.624,216.858 354.693,217.536 354.777 M227.014 354.777 C 227.692 354.861,228.801 354.861,229.479 354.777 C 230.156 354.693,229.602 354.624,228.246 354.624 C 226.891 354.624,226.336 354.693,227.014 354.777 M236.493 354.777 C 237.171 354.861,238.280 354.861,238.957 354.777 C 239.635 354.693,239.081 354.624,237.725 354.624 C 236.370 354.624,235.815 354.693,236.493 354.777 M245.978 354.777 C 246.660 354.862,247.684 354.860,248.253 354.773 C 248.823 354.687,248.265 354.618,247.014 354.620 C 245.763 354.622,245.297 354.693,245.978 354.777 M255.457 354.777 C 256.138 354.862,257.162 354.860,257.732 354.773 C 258.302 354.687,257.744 354.618,256.493 354.620 C 255.242 354.622,254.776 354.693,255.457 354.777 M264.936 354.777 C 265.617 354.862,266.641 354.860,267.211 354.773 C 267.780 354.687,267.223 354.618,265.972 354.620 C 264.720 354.622,264.254 354.693,264.936 354.777 M274.028 354.777 C 274.706 354.861,275.815 354.861,276.493 354.777 C 277.171 354.693,276.616 354.624,275.261 354.624 C 273.905 354.624,273.351 354.693,274.028 354.777 M283.507 354.777 C 284.185 354.861,285.294 354.861,285.972 354.777 C 286.649 354.693,286.095 354.624,284.739 354.624 C 283.384 354.624,282.829 354.693,283.507 354.777 M292.993 354.777 C 293.674 354.862,294.698 354.860,295.267 354.773 C 295.837 354.687,295.280 354.618,294.028 354.620 C 292.777 354.622,292.311 354.693,292.993 354.777 M302.471 354.777 C 303.153 354.862,304.176 354.860,304.746 354.773 C 305.316 354.687,304.758 354.618,303.507 354.620 C 302.256 354.622,301.790 354.693,302.471 354.777 M311.950 354.777 C 312.631 354.862,313.655 354.860,314.225 354.773 C 314.795 354.687,314.237 354.618,312.986 354.620 C 311.735 354.622,311.268 354.693,311.950 354.777 M321.043 354.777 C 321.720 354.861,322.829 354.861,323.507 354.777 C 324.185 354.693,323.630 354.624,322.275 354.624 C 320.919 354.624,320.365 354.693,321.043 354.777 M330.521 354.777 C 331.199 354.861,332.308 354.861,332.986 354.777 C 333.664 354.693,333.109 354.624,331.754 354.624 C 330.398 354.624,329.844 354.693,330.521 354.777 M340.007 354.777 C 340.688 354.862,341.712 354.860,342.282 354.773 C 342.851 354.687,342.294 354.618,341.043 354.620 C 339.791 354.622,339.325 354.693,340.007 354.777  M -25 0 L -5 0 L -5 20 L -25 20 Z M 405 0 L 425 0 L 425 20 L 405 20 Z" stroke="none" fill="#7c7c7c" fill-rule="evenodd" transform="translate(950,0)"></path><path id="path3" d="M57.527 28.331 C 58.200 28.414,59.394 28.416,60.181 28.334 C 60.968 28.251,60.417 28.183,58.957 28.181 C 57.498 28.180,56.854 28.247,57.527 28.331 M66.825 28.333 C 67.607 28.415,68.886 28.415,69.668 28.333 C 70.450 28.251,69.810 28.184,68.246 28.184 C 66.682 28.184,66.043 28.251,66.825 28.333 M76.105 28.331 C 76.778 28.414,77.973 28.416,78.759 28.334 C 79.546 28.251,78.995 28.183,77.536 28.181 C 76.076 28.180,75.432 28.247,76.105 28.331 M85.584 28.331 C 86.257 28.414,87.451 28.416,88.238 28.334 C 89.025 28.251,88.474 28.183,87.014 28.181 C 85.555 28.180,84.911 28.247,85.584 28.331 M95.063 28.331 C 95.736 28.414,96.930 28.416,97.717 28.334 C 98.503 28.251,97.953 28.183,96.493 28.181 C 95.033 28.180,94.390 28.247,95.063 28.331 M104.541 28.331 C 105.214 28.414,106.409 28.416,107.195 28.334 C 107.982 28.251,107.431 28.183,105.972 28.181 C 104.512 28.180,103.868 28.247,104.541 28.331 M114.020 28.331 C 114.693 28.414,115.887 28.416,116.674 28.334 C 117.461 28.251,116.910 28.183,115.450 28.181 C 113.991 28.180,113.347 28.247,114.020 28.331 M123.120 28.331 C 123.793 28.414,124.987 28.416,125.774 28.334 C 126.560 28.251,126.009 28.183,124.550 28.181 C 123.090 28.180,122.446 28.247,123.120 28.331 M132.598 28.331 C 133.271 28.414,134.466 28.416,135.252 28.334 C 136.039 28.251,135.488 28.183,134.028 28.181 C 132.569 28.180,131.925 28.247,132.598 28.331 M142.077 28.331 C 142.750 28.414,143.944 28.416,144.731 28.334 C 145.518 28.251,144.967 28.183,143.507 28.181 C 142.047 28.180,141.404 28.247,142.077 28.331 M151.556 28.331 C 152.229 28.414,153.423 28.416,154.210 28.334 C 154.996 28.251,154.445 28.183,152.986 28.181 C 151.526 28.180,150.882 28.247,151.556 28.331 M161.034 28.331 C 161.707 28.414,162.902 28.416,163.688 28.334 C 164.475 28.251,163.924 28.183,162.464 28.181 C 161.005 28.180,160.361 28.247,161.034 28.331 M170.332 28.333 C 171.114 28.415,172.393 28.415,173.175 28.333 C 173.957 28.251,173.318 28.184,171.754 28.184 C 170.190 28.184,169.550 28.251,170.332 28.333 M179.612 28.331 C 180.285 28.414,181.480 28.416,182.266 28.334 C 183.053 28.251,182.502 28.183,181.043 28.181 C 179.583 28.180,178.939 28.247,179.612 28.331 M189.091 28.331 C 189.764 28.414,190.958 28.416,191.745 28.334 C 192.532 28.251,191.981 28.183,190.521 28.181 C 189.062 28.180,188.418 28.247,189.091 28.331 M198.570 28.331 C 199.243 28.414,200.437 28.416,201.224 28.334 C 202.010 28.251,201.460 28.183,200.000 28.181 C 198.540 28.180,197.897 28.247,198.570 28.331 M208.048 28.331 C 208.721 28.414,209.916 28.416,210.702 28.334 C 211.489 28.251,210.938 28.183,209.479 28.181 C 208.019 28.180,207.375 28.247,208.048 28.331 M217.527 28.331 C 218.200 28.414,219.394 28.416,220.181 28.334 C 220.968 28.251,220.417 28.183,218.957 28.181 C 217.498 28.180,216.854 28.247,217.527 28.331 M226.825 28.333 C 227.607 28.415,228.886 28.415,229.668 28.333 C 230.450 28.251,229.810 28.184,228.246 28.184 C 226.682 28.184,226.043 28.251,226.825 28.333 M236.105 28.331 C 236.778 28.414,237.973 28.416,238.759 28.334 C 239.546 28.251,238.995 28.183,237.536 28.181 C 236.076 28.180,235.432 28.247,236.105 28.331 M245.584 28.331 C 246.257 28.414,247.451 28.416,248.238 28.334 C 249.025 28.251,248.474 28.183,247.014 28.181 C 245.555 28.180,244.911 28.247,245.584 28.331 M255.063 28.331 C 255.736 28.414,256.930 28.416,257.717 28.334 C 258.503 28.251,257.953 28.183,256.493 28.181 C 255.033 28.180,254.390 28.247,255.063 28.331 M264.541 28.331 C 265.214 28.414,266.409 28.416,267.195 28.334 C 267.982 28.251,267.431 28.183,265.972 28.181 C 264.512 28.180,263.868 28.247,264.541 28.331 M274.020 28.331 C 274.693 28.414,275.887 28.416,276.674 28.334 C 277.461 28.251,276.910 28.183,275.450 28.181 C 273.991 28.180,273.347 28.247,274.020 28.331 M283.120 28.331 C 283.793 28.414,284.987 28.416,285.774 28.334 C 286.560 28.251,286.009 28.183,284.550 28.181 C 283.090 28.180,282.446 28.247,283.120 28.331 M292.598 28.331 C 293.271 28.414,294.466 28.416,295.252 28.334 C 296.039 28.251,295.488 28.183,294.028 28.181 C 292.569 28.180,291.925 28.247,292.598 28.331 M302.077 28.331 C 302.750 28.414,303.944 28.416,304.731 28.334 C 305.518 28.251,304.967 28.183,303.507 28.181 C 302.047 28.180,301.404 28.247,302.077 28.331 M311.556 28.331 C 312.229 28.414,313.423 28.416,314.210 28.334 C 314.996 28.251,314.445 28.183,312.986 28.181 C 311.526 28.180,310.882 28.247,311.556 28.331 M321.034 28.331 C 321.707 28.414,322.902 28.416,323.688 28.334 C 324.475 28.251,323.924 28.183,322.464 28.181 C 321.005 28.180,320.361 28.247,321.034 28.331 M330.332 28.333 C 331.114 28.415,332.393 28.415,333.175 28.333 C 333.957 28.251,333.318 28.184,331.754 28.184 C 330.190 28.184,329.550 28.251,330.332 28.333 M339.612 28.331 C 340.285 28.414,341.480 28.416,342.266 28.334 C 343.053 28.251,342.502 28.183,341.043 28.181 C 339.583 28.180,338.939 28.247,339.612 28.331 M355.829 33.744 C 356.644 34.578,357.396 35.261,357.500 35.261 C 357.604 35.261,357.023 34.578,356.209 33.744 C 355.394 32.910,354.642 32.227,354.538 32.227 C 354.434 32.227,355.015 32.910,355.829 33.744 M258.114 130.325 C 259.006 130.406,260.371 130.404,261.147 130.323 C 261.924 130.242,261.194 130.176,259.526 130.177 C 257.858 130.179,257.223 130.245,258.114 130.325 M91.469 132.985 C 94.545 133.049,99.578 133.049,102.654 132.985 C 105.730 132.921,103.213 132.869,97.062 132.869 C 90.910 132.869,88.393 132.921,91.469 132.985 M168.273 132.986 C 173.762 133.045,182.634 133.045,187.989 132.985 C 193.344 132.926,188.853 132.878,178.009 132.878 C 167.166 132.878,162.784 132.926,168.273 132.986 M222.918 144.360 L 221.611 145.782 223.033 144.475 C 224.357 143.259,224.629 142.938,224.340 142.938 C 224.276 142.938,223.637 143.578,222.918 144.360 M180.853 168.152 C 180.853 177.501,180.935 185.068,181.035 184.968 C 181.288 184.715,181.311 151.611,181.058 151.358 C 180.945 151.245,180.853 158.803,180.853 168.152 M240.545 158.578 L 239.431 159.810 240.664 158.697 C 241.341 158.084,241.896 157.530,241.896 157.465 C 241.896 157.172,241.583 157.430,240.545 158.578 M308.679 166.066 C 308.679 166.379,308.826 166.976,309.005 167.393 C 309.210 167.871,309.331 167.941,309.331 167.583 C 309.331 167.270,309.184 166.673,309.005 166.256 C 308.799 165.778,308.679 165.708,308.679 166.066 M311.014 178.578 C 311.014 179.725,311.085 180.194,311.172 179.621 C 311.259 179.047,311.259 178.109,311.172 177.536 C 311.085 176.962,311.014 177.431,311.014 178.578 M108.554 181.801 C 108.556 183.052,108.626 183.518,108.711 182.837 C 108.795 182.155,108.793 181.132,108.707 180.562 C 108.620 179.992,108.551 180.550,108.554 181.801 M287.897 182.559 C 287.899 184.019,287.967 184.570,288.049 183.783 C 288.131 182.996,288.130 181.802,288.046 181.129 C 287.962 180.456,287.895 181.100,287.897 182.559 M311.009 186.730 C 311.012 187.773,311.085 188.154,311.173 187.578 C 311.260 187.001,311.257 186.148,311.167 185.682 C 311.077 185.216,311.006 185.687,311.009 186.730 M157.442 187.867 C 157.446 188.701,157.523 188.998,157.614 188.526 C 157.705 188.055,157.701 187.372,157.606 187.010 C 157.512 186.647,157.437 187.033,157.442 187.867 M227.109 194.480 C 227.109 195.093,227.244 195.678,227.409 195.780 C 227.574 195.882,227.641 195.381,227.557 194.665 C 227.371 193.072,227.109 192.964,227.109 194.480 M308.842 198.131 C 308.703 198.687,308.662 199.215,308.751 199.304 C 308.841 199.393,309.028 199.012,309.167 198.456 C 309.307 197.901,309.348 197.373,309.258 197.284 C 309.169 197.194,308.982 197.576,308.842 198.131 M232.417 201.896 C 233.550 203.043,234.562 203.981,234.666 203.981 C 234.770 203.981,233.929 203.043,232.796 201.896 C 231.664 200.749,230.651 199.810,230.547 199.810 C 230.443 199.810,231.284 200.749,232.417 201.896 M116.967 207.393 C 117.781 208.227,118.533 208.910,118.637 208.910 C 118.742 208.910,118.160 208.227,117.346 207.393 C 116.531 206.559,115.780 205.877,115.675 205.877 C 115.571 205.877,116.152 206.559,116.967 207.393 M271.754 211.023 C 270.336 211.792,270.422 212.112,271.848 211.374 C 272.474 211.051,272.986 210.705,272.986 210.606 C 272.986 210.362,272.945 210.376,271.754 211.023 M132.219 214.113 C 132.892 214.196,134.086 214.198,134.873 214.116 C 135.660 214.033,135.109 213.965,133.649 213.963 C 132.190 213.962,131.546 214.029,132.219 214.113 M258.673 214.110 C 259.246 214.197,260.185 214.197,260.758 214.110 C 261.332 214.024,260.863 213.952,259.716 213.952 C 258.569 213.952,258.100 214.024,258.673 214.110 M100.079 221.517 C 101.650 223.191,101.991 223.492,101.991 223.207 C 101.991 223.146,101.180 222.336,100.190 221.406 L 98.389 219.716 100.079 221.517 M166.046 222.085 L 164.739 223.507 166.161 222.201 C 167.485 220.984,167.757 220.664,167.468 220.664 C 167.404 220.664,166.765 221.303,166.046 222.085 M132.613 234.967 C 133.295 235.051,134.319 235.049,134.888 234.963 C 135.458 234.876,134.900 234.807,133.649 234.809 C 132.398 234.812,131.932 234.882,132.613 234.967 M259.057 234.964 C 259.634 235.051,260.487 235.049,260.953 234.959 C 261.419 234.869,260.948 234.798,259.905 234.800 C 258.863 234.803,258.481 234.877,259.057 234.964 M215.006 269.473 L 214.976 270.321 203.128 270.427 L 191.280 270.533 203.140 270.622 C 215.554 270.715,215.860 270.677,215.232 269.112 C 215.124 268.844,215.023 269.007,215.006 269.473 M40.190 349.005 C 40.897 349.735,41.561 350.332,41.665 350.332 C 41.770 350.332,41.276 349.735,40.569 349.005 C 39.861 348.275,39.197 347.678,39.093 347.678 C 38.989 347.678,39.482 348.275,40.190 349.005 M355.806 349.289 L 354.692 350.521 355.924 349.408 C 356.602 348.795,357.156 348.241,357.156 348.176 C 357.156 347.883,356.844 348.140,355.806 349.289  M -25 0 L -5 0 L -5 20 L -25 20 Z M 405 0 L 425 0 L 425 20 L 405 20 Z" stroke="none" fill="#525252" fill-rule="evenodd" transform="translate(30,438)"></path><path id="path4" d="M40.548 33.270 L 39.242 34.692 40.664 33.385 C 41.445 32.667,42.085 32.027,42.085 31.964 C 42.085 31.674,41.764 31.947,40.548 33.270 M355.640 33.175 C 356.347 33.905,357.011 34.502,357.116 34.502 C 357.220 34.502,356.726 33.905,356.019 33.175 C 355.312 32.445,354.647 31.848,354.543 31.848 C 354.439 31.848,354.932 32.445,355.640 33.175 M361.415 46.256 C 361.415 46.986,361.493 47.284,361.588 46.919 C 361.684 46.555,361.684 45.957,361.588 45.592 C 361.493 45.227,361.415 45.526,361.415 46.256 M361.454 54.218 C 361.454 55.782,361.521 56.422,361.603 55.640 C 361.685 54.858,361.685 53.578,361.603 52.796 C 361.521 52.014,361.454 52.654,361.454 54.218 M361.451 63.507 C 361.453 64.967,361.522 65.518,361.604 64.731 C 361.686 63.944,361.684 62.750,361.601 62.077 C 361.517 61.404,361.450 62.047,361.451 63.507 M361.451 72.986 C 361.453 74.445,361.522 74.996,361.604 74.210 C 361.686 73.423,361.684 72.229,361.601 71.556 C 361.517 70.882,361.450 71.526,361.451 72.986 M361.451 82.464 C 361.453 83.924,361.522 84.475,361.604 83.688 C 361.686 82.902,361.684 81.707,361.601 81.034 C 361.517 80.361,361.450 81.005,361.451 82.464 M361.454 91.754 C 361.454 93.318,361.521 93.957,361.603 93.175 C 361.685 92.393,361.685 91.114,361.603 90.332 C 361.521 89.550,361.454 90.190,361.454 91.754 M361.454 101.232 C 361.454 102.796,361.521 103.436,361.603 102.654 C 361.685 101.872,361.685 100.592,361.603 99.810 C 361.521 99.028,361.454 99.668,361.454 101.232 M361.454 110.711 C 361.454 112.275,361.521 112.915,361.603 112.133 C 361.685 111.351,361.685 110.071,361.603 109.289 C 361.521 108.507,361.454 109.147,361.454 110.711 M361.454 120.190 C 361.454 121.754,361.521 122.393,361.603 121.611 C 361.685 120.829,361.685 119.550,361.603 118.768 C 361.521 117.986,361.454 118.626,361.454 120.190 M361.451 129.479 C 361.453 130.938,361.522 131.489,361.604 130.702 C 361.686 129.916,361.684 128.721,361.601 128.048 C 361.517 127.375,361.450 128.019,361.451 129.479 M97.057 133.362 L 108.426 133.471 108.533 146.736 L 108.640 160.000 108.633 146.635 L 108.626 133.270 97.156 133.262 L 85.687 133.253 97.057 133.362 M167.867 133.365 C 173.341 133.424,182.299 133.424,187.773 133.365 C 193.246 133.305,188.768 133.257,177.820 133.257 C 166.872 133.257,162.393 133.305,167.867 133.365 M361.451 138.957 C 361.453 140.417,361.522 140.968,361.604 140.181 C 361.686 139.394,361.684 138.200,361.601 137.527 C 361.517 136.854,361.450 137.498,361.451 138.957 M223.297 144.360 L 221.991 145.782 223.412 144.475 C 224.736 143.259,225.008 142.938,224.719 142.938 C 224.656 142.938,224.016 143.578,223.297 144.360 M361.451 148.436 C 361.453 149.896,361.522 150.446,361.604 149.660 C 361.686 148.873,361.684 147.679,361.601 147.006 C 361.517 146.333,361.450 146.976,361.451 148.436 M180.710 150.726 C 180.580 151.064,180.513 159.731,180.562 169.984 L 180.650 188.626 180.846 169.479 C 181.057 148.975,181.063 149.808,180.710 150.726 M255.640 151.162 C 256.005 151.257,256.602 151.257,256.967 151.162 C 257.332 151.066,257.033 150.988,256.303 150.988 C 255.573 150.988,255.275 151.066,255.640 151.162 M361.454 157.725 C 361.454 159.289,361.521 159.929,361.603 159.147 C 361.685 158.365,361.685 157.085,361.603 156.303 C 361.521 155.521,361.454 156.161,361.454 157.725 M279.036 158.957 C 280.607 160.631,280.948 160.932,280.948 160.648 C 280.948 160.587,280.137 159.776,279.147 158.847 L 277.346 157.156 279.036 158.957 M361.454 167.204 C 361.454 168.768,361.521 169.408,361.603 168.626 C 361.685 167.844,361.685 166.564,361.603 165.782 C 361.521 165.000,361.454 165.640,361.454 167.204 M361.454 176.682 C 361.454 178.246,361.521 178.886,361.603 178.104 C 361.685 177.322,361.685 176.043,361.603 175.261 C 361.521 174.479,361.454 175.118,361.454 176.682 M361.451 185.972 C 361.453 187.431,361.522 187.982,361.604 187.195 C 361.686 186.409,361.684 185.214,361.601 184.541 C 361.517 183.868,361.450 184.512,361.451 185.972 M108.532 187.109 C 108.536 187.943,108.613 188.240,108.704 187.768 C 108.795 187.296,108.791 186.614,108.697 186.252 C 108.602 185.889,108.527 186.275,108.532 187.109 M361.451 195.450 C 361.453 196.910,361.522 197.461,361.604 196.674 C 361.686 195.887,361.684 194.693,361.601 194.020 C 361.517 193.347,361.450 193.991,361.451 195.450 M232.227 202.085 C 233.042 202.919,233.794 203.602,233.898 203.602 C 234.002 203.602,233.421 202.919,232.607 202.085 C 231.792 201.251,231.040 200.569,230.936 200.569 C 230.832 200.569,231.413 201.251,232.227 202.085 M361.451 204.929 C 361.453 206.389,361.522 206.939,361.604 206.153 C 361.686 205.366,361.684 204.172,361.601 203.499 C 361.517 202.826,361.450 203.469,361.451 204.929 M279.052 206.066 C 278.131 207.005,277.463 207.773,277.567 207.773 C 277.672 207.773,278.510 207.005,279.431 206.066 C 280.352 205.128,281.020 204.360,280.916 204.360 C 280.812 204.360,279.973 205.128,279.052 206.066 M116.777 207.583 C 117.485 208.313,118.149 208.910,118.253 208.910 C 118.357 208.910,117.864 208.313,117.156 207.583 C 116.449 206.853,115.785 206.256,115.681 206.256 C 115.576 206.256,116.070 206.853,116.777 207.583 M361.454 214.218 C 361.454 215.782,361.521 216.422,361.603 215.640 C 361.685 214.858,361.685 213.578,361.603 212.796 C 361.521 212.014,361.454 212.654,361.454 214.218 M100.095 221.232 C 101.227 222.379,102.239 223.318,102.344 223.318 C 102.448 223.318,101.607 222.379,100.474 221.232 C 99.341 220.085,98.329 219.147,98.225 219.147 C 98.121 219.147,98.962 220.085,100.095 221.232 M166.066 221.611 C 165.145 222.550,164.477 223.318,164.581 223.318 C 164.686 223.318,165.525 222.550,166.445 221.611 C 167.366 220.673,168.035 219.905,167.930 219.905 C 167.826 219.905,166.987 220.673,166.066 221.611 M222.690 221.249 C 222.567 221.570,222.572 221.940,222.702 222.070 C 222.832 222.200,222.938 222.022,222.938 221.675 C 222.938 220.923,223.347 220.866,224.077 221.517 C 224.529 221.920,224.533 221.891,224.106 221.327 C 223.486 220.508,222.985 220.480,222.690 221.249 M361.454 223.697 C 361.454 225.261,361.521 225.900,361.603 225.118 C 361.685 224.336,361.685 223.057,361.603 222.275 C 361.521 221.493,361.454 222.133,361.454 223.697 M361.454 233.175 C 361.454 234.739,361.521 235.379,361.603 234.597 C 361.685 233.815,361.685 232.536,361.603 231.754 C 361.521 230.972,361.454 231.611,361.454 233.175 M131.295 234.594 C 132.712 234.667,134.930 234.667,136.224 234.593 C 137.519 234.519,136.360 234.459,133.649 234.460 C 130.938 234.461,129.879 234.521,131.295 234.594 M257.156 234.594 C 258.564 234.667,260.867 234.667,262.275 234.594 C 263.682 234.521,262.531 234.461,259.716 234.461 C 256.900 234.461,255.749 234.521,257.156 234.594 M361.454 242.654 C 361.454 244.218,361.521 244.858,361.603 244.076 C 361.685 243.294,361.685 242.014,361.603 241.232 C 361.521 240.450,361.454 241.090,361.454 242.654 M361.451 251.943 C 361.453 253.403,361.522 253.954,361.604 253.167 C 361.686 252.380,361.684 251.186,361.601 250.513 C 361.517 249.840,361.450 250.483,361.451 251.943 M361.451 261.422 C 361.453 262.882,361.522 263.432,361.604 262.646 C 361.686 261.859,361.684 260.665,361.601 259.992 C 361.517 259.318,361.450 259.962,361.451 261.422 M361.451 270.900 C 361.453 272.360,361.522 272.911,361.604 272.124 C 361.686 271.338,361.684 270.143,361.601 269.470 C 361.517 268.797,361.450 269.441,361.451 270.900 M361.454 280.190 C 361.454 281.754,361.521 282.393,361.603 281.611 C 361.685 280.829,361.685 279.550,361.603 278.768 C 361.521 277.986,361.454 278.626,361.454 280.190 M361.454 289.668 C 361.454 291.232,361.521 291.872,361.603 291.090 C 361.685 290.308,361.685 289.028,361.603 288.246 C 361.521 287.464,361.454 288.104,361.454 289.668 M361.454 299.147 C 361.454 300.711,361.521 301.351,361.603 300.569 C 361.685 299.787,361.685 298.507,361.603 297.725 C 361.521 296.943,361.454 297.583,361.454 299.147 M361.451 308.436 C 361.453 309.896,361.522 310.446,361.604 309.660 C 361.686 308.873,361.684 307.679,361.601 307.006 C 361.517 306.333,361.450 306.976,361.451 308.436 M361.451 317.915 C 361.453 319.374,361.522 319.925,361.604 319.138 C 361.686 318.352,361.684 317.158,361.601 316.484 C 361.517 315.811,361.450 316.455,361.451 317.915 M361.451 327.393 C 361.453 328.853,361.522 329.404,361.604 328.617 C 361.686 327.830,361.684 326.636,361.601 325.963 C 361.517 325.290,361.450 325.934,361.451 327.393 M361.441 335.924 C 361.441 337.071,361.512 337.540,361.599 336.967 C 361.685 336.393,361.685 335.455,361.599 334.882 C 361.512 334.308,361.441 334.777,361.441 335.924 M51.848 354.780 C 52.735 354.860,54.185 354.860,55.071 354.780 C 55.957 354.700,55.232 354.635,53.460 354.635 C 51.687 354.635,50.962 354.700,51.848 354.780 M62.077 354.776 C 62.750 354.860,63.944 354.861,64.731 354.779 C 65.518 354.697,64.967 354.628,63.507 354.627 C 62.047 354.625,61.404 354.692,62.077 354.776 M71.556 354.776 C 72.229 354.860,73.423 354.861,74.210 354.779 C 74.996 354.697,74.445 354.628,72.986 354.627 C 71.526 354.625,70.882 354.692,71.556 354.776 M81.034 354.776 C 81.707 354.860,82.902 354.861,83.688 354.779 C 84.475 354.697,83.924 354.628,82.464 354.627 C 81.005 354.625,80.361 354.692,81.034 354.776 M90.332 354.779 C 91.114 354.860,92.393 354.860,93.175 354.779 C 93.957 354.697,93.318 354.630,91.754 354.630 C 90.190 354.630,89.550 354.697,90.332 354.779 M99.810 354.779 C 100.592 354.860,101.872 354.860,102.654 354.779 C 103.436 354.697,102.796 354.630,101.232 354.630 C 99.668 354.630,99.028 354.697,99.810 354.779 M109.091 354.776 C 109.764 354.860,110.958 354.861,111.745 354.779 C 112.532 354.697,111.981 354.628,110.521 354.627 C 109.062 354.625,108.418 354.692,109.091 354.776 M118.570 354.776 C 119.243 354.860,120.437 354.861,121.224 354.779 C 122.010 354.697,121.460 354.628,120.000 354.627 C 118.540 354.625,117.897 354.692,118.570 354.776 M128.048 354.776 C 128.721 354.860,129.916 354.861,130.702 354.779 C 131.489 354.697,130.938 354.628,129.479 354.627 C 128.019 354.625,127.375 354.692,128.048 354.776 M137.346 354.779 C 138.128 354.860,139.408 354.860,140.190 354.779 C 140.972 354.697,140.332 354.630,138.768 354.630 C 137.204 354.630,136.564 354.697,137.346 354.779 M146.825 354.779 C 147.607 354.860,148.886 354.860,149.668 354.779 C 150.450 354.697,149.810 354.630,148.246 354.630 C 146.682 354.630,146.043 354.697,146.825 354.779 M156.105 354.776 C 156.778 354.860,157.973 354.861,158.759 354.779 C 159.546 354.697,158.995 354.628,157.536 354.627 C 156.076 354.625,155.432 354.692,156.105 354.776 M165.584 354.776 C 166.257 354.860,167.451 354.861,168.238 354.779 C 169.025 354.697,168.474 354.628,167.014 354.627 C 165.555 354.625,164.911 354.692,165.584 354.776 M175.063 354.776 C 175.736 354.860,176.930 354.861,177.717 354.779 C 178.503 354.697,177.953 354.628,176.493 354.627 C 175.033 354.625,174.390 354.692,175.063 354.776 M184.541 354.776 C 185.214 354.860,186.409 354.861,187.195 354.779 C 187.982 354.697,187.431 354.628,185.972 354.627 C 184.512 354.625,183.868 354.692,184.541 354.776 M193.839 354.779 C 194.621 354.860,195.900 354.860,196.682 354.779 C 197.464 354.697,196.825 354.630,195.261 354.630 C 193.697 354.630,193.057 354.697,193.839 354.779 M203.318 354.779 C 204.100 354.860,205.379 354.860,206.161 354.779 C 206.943 354.697,206.303 354.630,204.739 354.630 C 203.175 354.630,202.536 354.697,203.318 354.779 M212.598 354.776 C 213.271 354.860,214.466 354.861,215.252 354.779 C 216.039 354.697,215.488 354.628,214.028 354.627 C 212.569 354.625,211.925 354.692,212.598 354.776 M222.077 354.776 C 222.750 354.860,223.944 354.861,224.731 354.779 C 225.518 354.697,224.967 354.628,223.507 354.627 C 222.047 354.625,221.404 354.692,222.077 354.776 M231.556 354.776 C 232.229 354.860,233.423 354.861,234.210 354.779 C 234.996 354.697,234.445 354.628,232.986 354.627 C 231.526 354.625,230.882 354.692,231.556 354.776 M241.034 354.776 C 241.707 354.860,242.902 354.861,243.688 354.779 C 244.475 354.697,243.924 354.628,242.464 354.627 C 241.005 354.625,240.361 354.692,241.034 354.776 M250.332 354.779 C 251.114 354.860,252.393 354.860,253.175 354.779 C 253.957 354.697,253.318 354.630,251.754 354.630 C 250.190 354.630,249.550 354.697,250.332 354.779 M259.810 354.779 C 260.592 354.860,261.872 354.860,262.654 354.779 C 263.436 354.697,262.796 354.630,261.232 354.630 C 259.668 354.630,259.028 354.697,259.810 354.779 M269.091 354.776 C 269.764 354.860,270.958 354.861,271.745 354.779 C 272.532 354.697,271.981 354.628,270.521 354.627 C 269.062 354.625,268.418 354.692,269.091 354.776 M278.570 354.776 C 279.243 354.860,280.437 354.861,281.224 354.779 C 282.010 354.697,281.460 354.628,280.000 354.627 C 278.540 354.625,277.897 354.692,278.570 354.776 M288.048 354.776 C 288.721 354.860,289.916 354.861,290.702 354.779 C 291.489 354.697,290.938 354.628,289.479 354.627 C 288.019 354.625,287.375 354.692,288.048 354.776 M297.346 354.779 C 298.128 354.860,299.408 354.860,300.190 354.779 C 300.972 354.697,300.332 354.630,298.768 354.630 C 297.204 354.630,296.564 354.697,297.346 354.779 M306.825 354.779 C 307.607 354.860,308.886 354.860,309.668 354.779 C 310.450 354.697,309.810 354.630,308.246 354.630 C 306.682 354.630,306.043 354.697,306.825 354.779 M316.105 354.776 C 316.778 354.860,317.973 354.861,318.759 354.779 C 319.546 354.697,318.995 354.628,317.536 354.627 C 316.076 354.625,315.432 354.692,316.105 354.776 M325.584 354.776 C 326.257 354.860,327.451 354.861,328.238 354.779 C 329.025 354.697,328.474 354.628,327.014 354.627 C 325.555 354.625,324.911 354.692,325.584 354.776 M335.063 354.776 C 335.736 354.860,336.930 354.861,337.717 354.779 C 338.503 354.697,337.953 354.628,336.493 354.627 C 335.033 354.625,334.390 354.692,335.063 354.776 M343.791 354.770 C 344.261 354.860,345.028 354.860,345.498 354.770 C 345.967 354.680,345.583 354.606,344.645 354.606 C 343.706 354.606,343.322 354.680,343.791 354.770  M -25 0 L -5 0 L -5 20 L -25 20 Z M 405 0 L 425 0 L 425 20 L 405 20 Z" stroke="none" fill="#848484" fill-rule="evenodd" transform="translate(490,438)"></path></g></svg>